<svg width="160" height="160" viewBox="0 0 160 160" fill="none" xmlns="http://www.w3.org/2000/svg">
<rect width="160" height="160" rx="40" fill="#FAF3FF"/>
<g clip-path="url(#clip0)">
<path d="M79.4631 80.5369C79.4631 76.8345 80.9339 73.2838 83.5518 70.6659C86.1698 68.0479 89.7205 66.5771 93.4228 66.5771C97.1252 66.5771 100.676 68.0479 103.294 70.6659C105.912 73.2838 107.383 76.8345 107.383 80.5369C107.383 84.2392 105.912 87.7899 103.294 90.4079C100.676 93.0259 97.1252 94.4966 93.4228 94.4966C89.7205 94.4966 86.1698 93.0259 83.5518 90.4079C80.9339 87.7899 79.4631 84.2392 79.4631 80.5369V80.5369Z" fill="#1ABCFE"/>
<path d="M51.5436 108.456C51.5436 104.754 53.0144 101.203 55.6324 98.5854C58.2503 95.9674 61.801 94.4966 65.5034 94.4966H79.4631V108.456C79.4631 112.159 77.9923 115.709 75.3744 118.327C72.7564 120.945 69.2057 122.416 65.5034 122.416C61.801 122.416 58.2503 120.945 55.6324 118.327C53.0144 115.709 51.5436 112.159 51.5436 108.456V108.456Z" fill="#0ACF83"/>
<path d="M79.4631 38.6577V66.5772H93.4228C97.1252 66.5772 100.676 65.1064 103.294 62.4885C105.912 59.8705 107.383 56.3198 107.383 52.6174C107.383 48.9151 105.912 45.3644 103.294 42.7464C100.676 40.1285 97.1252 38.6577 93.4228 38.6577H79.4631Z" fill="#FF7262"/>
<path d="M51.5436 52.6174C51.5436 56.3198 53.0144 59.8705 55.6324 62.4885C58.2503 65.1064 61.801 66.5772 65.5034 66.5772H79.4631V38.6577H65.5034C61.801 38.6577 58.2503 40.1285 55.6324 42.7464C53.0144 45.3644 51.5436 48.9151 51.5436 52.6174V52.6174Z" fill="#F24E1E"/>
<path d="M51.5436 80.5369C51.5436 84.2392 53.0144 87.7899 55.6324 90.4079C58.2503 93.0259 61.801 94.4966 65.5034 94.4966H79.4631V66.5771H65.5034C61.801 66.5771 58.2503 68.0479 55.6324 70.6659C53.0144 73.2838 51.5436 76.8345 51.5436 80.5369V80.5369Z" fill="#A259FF"/>
</g>
<defs>
<clipPath id="clip0">
<rect width="55.8389" height="83.7584" fill="white" transform="translate(51.5436 38.6577)"/>
</clipPath>
</defs>
</svg>
