<svg width="512" height="512" viewBox="0 0 512 512" fill="none" xmlns="http://www.w3.org/2000/svg">
<rect width="512" height="512" fill="white"/>
<path d="M173.5 106H106V241H151V151H173.5C185.926 151 196 161.074 196 173.5V241H241V173.5C241 136.221 210.779 106 173.5 106Z" fill="#6100FF"/>
<path fill-rule="evenodd" clip-rule="evenodd" d="M338.5 241C375.779 241 406 210.779 406 173.5C406 136.221 375.779 106 338.5 106C301.221 106 271 136.221 271 173.5C271 210.779 301.221 241 338.5 241ZM338.5 196C350.926 196 361 185.926 361 173.5C361 161.074 350.926 151 338.5 151C326.074 151 316 161.074 316 173.5C316 185.926 326.074 196 338.5 196Z" fill="#6100FF"/>
<path d="M151 271H106V338.5C106 375.779 136.221 406 173.5 406H196V451H241V316H196V361H173.5C161.074 361 151 350.926 151 338.5V271Z" fill="#6100FF"/>
<path fill-rule="evenodd" clip-rule="evenodd" d="M338.5 406C301.221 406 271 375.779 271 338.5C271 301.221 301.221 271 338.5 271C375.779 271 406 301.221 406 338.5V406H338.5ZM338.5 361C350.926 361 361 350.926 361 338.5C361 326.074 350.926 316 338.5 316C326.074 316 316 326.074 316 338.5C316 350.926 326.074 361 338.5 361Z" fill="#6100FF"/>
</svg>
