<svg width="160" height="160" viewBox="0 0 160 160" fill="none" xmlns="http://www.w3.org/2000/svg">
<rect width="160" height="160" rx="40" fill="#FAF3FF"/>
<path fill-rule="evenodd" clip-rule="evenodd" d="M48.1825 33.3902L79.9044 30.0671L111.629 33.3902L136.189 66.06L79.9067 131.007L23.6241 66.06L48.1825 33.3902Z" fill="#FDB300"/>
<path fill-rule="evenodd" clip-rule="evenodd" d="M46.4222 66.4514L79.9067 131.005L23.6241 66.4514H46.4222Z" fill="#EA6C00"/>
<path fill-rule="evenodd" clip-rule="evenodd" d="M113.4 66.4514L79.9129 131.005L136.195 66.4514H113.4Z" fill="#EA6C00"/>
<path fill-rule="evenodd" clip-rule="evenodd" d="M45.9102 66.4514H112.746L79.3281 131.005L45.9102 66.4514Z" fill="#FDAD00"/>
<path fill-rule="evenodd" clip-rule="evenodd" d="M78.7421 30.0671L47.6373 33.4258L45.9102 66.453L78.7421 30.0671Z" fill="#FDD231"/>
<path fill-rule="evenodd" clip-rule="evenodd" d="M79.8978 30.0671L111.003 33.4258L112.73 66.453L79.8978 30.0671Z" fill="#FDD231"/>
<path fill-rule="evenodd" clip-rule="evenodd" d="M136.195 66.4515L111.57 33.5864L113.337 66.4515H136.195Z" fill="#FDAD00"/>
<path fill-rule="evenodd" clip-rule="evenodd" d="M23.6241 66.4515L48.2469 33.5864L46.4799 66.4515H23.6241Z" fill="#FDAD00"/>
<path fill-rule="evenodd" clip-rule="evenodd" d="M79.3323 30.0671L45.9144 66.453H112.75L79.3323 30.0671Z" fill="#FEEEB7"/>
</svg>
