<svg width="160" height="160" viewBox="0 0 160 160" fill="none" xmlns="http://www.w3.org/2000/svg">
<rect width="160" height="160" rx="40" fill="#FAF3FF"/>
<path d="M48.6163 25.7718H111.921C118.265 25.7718 124.349 28.2918 128.834 32.7773C133.32 37.2629 135.84 43.3466 135.84 49.6901V110.215C135.84 113.356 135.221 116.466 134.019 119.368C132.817 122.27 131.055 124.907 128.834 127.128C126.613 129.349 123.977 131.11 121.075 132.312C118.173 133.515 115.062 134.133 111.921 134.133H48.6163C42.2728 134.133 36.189 131.613 31.7035 127.128C27.2179 122.642 24.698 116.558 24.698 110.215L24.698 49.6901C24.698 43.3466 27.2179 37.2629 31.7035 32.7773C36.189 28.2918 42.2728 25.7718 48.6163 25.7718V25.7718Z" fill="#470137"/>
<path d="M83.1304 54.2704L69.2625 77.1592L84.1006 101.467C84.196 101.637 84.2225 101.837 84.1746 102.026C84.1253 102.201 83.9529 102.09 83.6525 102.139H73.0626C72.3237 102.139 71.7943 102.112 71.4963 101.614C70.5013 99.6754 69.5072 97.7487 68.5139 95.8343C67.5206 93.9199 66.464 91.9694 65.3443 89.9828C64.2246 87.9945 63.118 85.9808 62.0245 83.9417H61.9506C60.9557 85.9299 59.9246 87.9182 58.8574 89.9065C57.7902 91.8947 56.7337 93.8699 55.6878 95.8319C54.6436 97.8021 53.5765 99.7534 52.4863 101.686C52.2868 102.134 51.9395 102.178 51.442 102.178H41.229C41.032 102.178 40.9187 102.257 40.8941 102.058C40.8654 101.876 40.9058 101.689 41.0073 101.536L55.3972 77.8931L41.3767 54.194C41.2265 53.9945 41.2019 53.8344 41.3029 53.7015C41.358 53.6378 41.4272 53.588 41.505 53.5559C41.5829 53.5238 41.6672 53.5104 41.7511 53.5168H52.2622C52.4917 53.5031 52.7214 53.541 52.9344 53.6276C53.112 53.7295 53.2644 53.8701 53.3802 54.0389C54.275 56.0271 55.27 58.0154 56.3651 60.0037C57.4602 61.9919 58.566 63.9547 59.6825 65.8921C60.8005 67.8311 61.8316 69.7939 62.7756 71.7806H62.8495C63.8346 69.743 64.8411 67.7548 65.8689 65.8158C66.8967 63.8768 67.9401 61.9254 68.999 59.9618C70.0679 57.9916 71.099 56.0411 72.0923 54.1103C72.1488 53.9237 72.2512 53.7543 72.3903 53.6177C72.5742 53.5243 72.781 53.4858 72.9862 53.5069H82.7535C82.8079 53.4933 82.8644 53.4905 82.9198 53.4987C82.9752 53.5069 83.0284 53.526 83.0765 53.5548C83.1245 53.5836 83.1664 53.6216 83.1997 53.6667C83.2331 53.7117 83.2572 53.7628 83.2708 53.8172C83.2902 53.8958 83.2869 53.9783 83.2611 54.0551C83.2354 54.1318 83.1883 54.1997 83.1254 54.2507L83.1304 54.2704Z" fill="#FF61F6"/>
<path d="M104.525 103.106C101.094 103.158 97.6941 102.446 94.573 101.02C91.6641 99.6739 89.2327 97.4761 87.6008 94.7175C85.8062 91.4998 84.9288 87.8514 85.0642 84.1695C85.036 80.7473 85.911 77.3782 87.6008 74.4022C89.3421 71.3698 91.9028 68.8894 94.9891 67.2455C98.5967 65.3652 102.626 64.4402 106.692 64.5586C106.938 64.5586 107.264 64.5734 107.662 64.5955C108.061 64.6177 108.532 64.6571 109.079 64.7088V50.0185C109.079 49.6712 109.226 49.4964 109.527 49.4964H118.92C118.971 49.4891 119.024 49.492 119.074 49.505C119.125 49.518 119.172 49.5408 119.214 49.5722C119.255 49.6035 119.29 49.6427 119.317 49.6876C119.343 49.7325 119.361 49.7822 119.368 49.8338C119.374 49.8705 119.374 49.9079 119.368 49.9446V94.0181C119.368 94.8653 119.406 95.7847 119.481 96.7764C119.557 97.7681 119.619 98.6621 119.668 99.4583C119.676 99.6122 119.638 99.7648 119.558 99.8965C119.478 100.028 119.36 100.133 119.22 100.197C116.797 101.208 114.272 101.958 111.689 102.433C109.326 102.871 106.928 103.096 104.525 103.106V103.106ZM109.071 93.8605V73.5058C108.668 73.3961 108.256 73.3211 107.84 73.2817C107.332 73.2308 106.823 73.2062 106.31 73.2078C104.501 73.1906 102.713 73.5998 101.092 74.4022C99.5122 75.1874 98.1636 76.3695 97.1785 77.8329C96.0844 79.5956 95.5511 81.6489 95.6491 83.7213C95.6129 85.347 95.8785 86.9653 96.4324 88.4941C96.8843 89.7251 97.5967 90.8441 98.5208 91.7745C99.4056 92.6295 100.477 93.2669 101.651 93.6364C102.891 94.0394 104.188 94.2415 105.493 94.2348C106.187 94.2348 106.833 94.2094 107.431 94.1585C107.987 94.1174 108.537 94.0175 109.071 93.8605V93.8605Z" fill="#FF61F6"/>
</svg>
